<mxfile host="app.diagrams.net" agent="Mozilla/5.0 (Windows NT 10.0; Win64; x64) AppleWebKit/537.36 (KHTML, like Gecko) Chrome/141.0.0.0 Safari/537.36 Edg/141.0.0.0" version="28.2.7">
  <diagram name="第 1 页" id="Fj6Ear9r6pBHMBFQI765">
    <mxGraphModel dx="2853" dy="1134" grid="1" gridSize="10" guides="1" tooltips="1" connect="1" arrows="1" fold="1" page="1" pageScale="1" pageWidth="827" pageHeight="1169" math="0" shadow="0">
      <root>
        <mxCell id="0" />
        <mxCell id="1" parent="0" />
        <mxCell id="f2FuB_gVFWCy95t1vYH7-1" value="" style="rounded=1;whiteSpace=wrap;html=1;" vertex="1" parent="1">
          <mxGeometry x="-100" y="220" width="590" height="40" as="geometry" />
        </mxCell>
        <mxCell id="f2FuB_gVFWCy95t1vYH7-5" value="&lt;font style=&quot;font-size: 18px;&quot;&gt;&lt;b&gt;param1&lt;/b&gt;&lt;/font&gt;" style="rounded=1;whiteSpace=wrap;html=1;strokeWidth=2;fillWeight=4;hachureGap=8;hachureAngle=45;fillColor=#fff2cc;sketch=1;strokeColor=#d6b656;" vertex="1" parent="1">
          <mxGeometry x="-60" y="220" width="170" height="40" as="geometry" />
        </mxCell>
        <mxCell id="f2FuB_gVFWCy95t1vYH7-7" value="" style="rounded=1;whiteSpace=wrap;html=1;" vertex="1" parent="1">
          <mxGeometry x="510" y="220" width="530" height="40" as="geometry" />
        </mxCell>
        <mxCell id="f2FuB_gVFWCy95t1vYH7-8" value="&lt;font style=&quot;font-size: 18px;&quot;&gt;&lt;b&gt;param4&lt;/b&gt;&lt;/font&gt;" style="rounded=1;whiteSpace=wrap;html=1;strokeWidth=2;fillWeight=4;hachureGap=8;hachureAngle=45;fillColor=#fff2cc;sketch=1;strokeColor=#d6b656;" vertex="1" parent="1">
          <mxGeometry x="130" y="220" width="120" height="40" as="geometry" />
        </mxCell>
        <mxCell id="f2FuB_gVFWCy95t1vYH7-9" value="&lt;font style=&quot;font-size: 18px;&quot;&gt;&lt;b&gt;param6&lt;/b&gt;&lt;/font&gt;" style="rounded=1;whiteSpace=wrap;html=1;strokeWidth=2;fillWeight=4;hachureGap=8;hachureAngle=45;fillColor=#fff2cc;sketch=1;strokeColor=#d6b656;" vertex="1" parent="1">
          <mxGeometry x="270" y="220" width="120" height="40" as="geometry" />
        </mxCell>
        <mxCell id="f2FuB_gVFWCy95t1vYH7-10" value="&lt;font style=&quot;font-size: 18px;&quot;&gt;&lt;b&gt;param2&lt;/b&gt;&lt;/font&gt;" style="rounded=1;whiteSpace=wrap;html=1;strokeWidth=2;fillWeight=4;hachureGap=8;hachureAngle=45;fillColor=#fff2cc;sketch=1;strokeColor=#d6b656;" vertex="1" parent="1">
          <mxGeometry x="550" y="220" width="120" height="40" as="geometry" />
        </mxCell>
        <mxCell id="f2FuB_gVFWCy95t1vYH7-11" value="&lt;font style=&quot;font-size: 18px;&quot;&gt;&lt;b&gt;param3&lt;/b&gt;&lt;/font&gt;" style="rounded=1;whiteSpace=wrap;html=1;strokeWidth=2;fillWeight=4;hachureGap=8;hachureAngle=45;fillColor=#fff2cc;sketch=1;strokeColor=#d6b656;" vertex="1" parent="1">
          <mxGeometry x="690" y="220" width="120" height="40" as="geometry" />
        </mxCell>
        <mxCell id="f2FuB_gVFWCy95t1vYH7-12" value="&lt;font style=&quot;font-size: 18px;&quot;&gt;&lt;b&gt;param5&lt;/b&gt;&lt;/font&gt;" style="rounded=1;whiteSpace=wrap;html=1;strokeWidth=2;fillWeight=4;hachureGap=8;hachureAngle=45;fillColor=#fff2cc;sketch=1;strokeColor=#d6b656;" vertex="1" parent="1">
          <mxGeometry x="827" y="220" width="120" height="40" as="geometry" />
        </mxCell>
        <mxCell id="f2FuB_gVFWCy95t1vYH7-13" value="&lt;font style=&quot;font-size: 18px;&quot;&gt;&lt;b&gt;Sharding_rank_0&lt;/b&gt;&lt;/font&gt;" style="text;html=1;whiteSpace=wrap;strokeColor=none;fillColor=none;align=center;verticalAlign=middle;rounded=0;" vertex="1" parent="1">
          <mxGeometry x="180" y="170" width="60" height="30" as="geometry" />
        </mxCell>
        <mxCell id="f2FuB_gVFWCy95t1vYH7-15" value="&lt;font style=&quot;font-size: 18px;&quot;&gt;&lt;b&gt;Sharding_rank_1&lt;/b&gt;&lt;/font&gt;" style="text;html=1;whiteSpace=wrap;strokeColor=none;fillColor=none;align=center;verticalAlign=middle;rounded=0;" vertex="1" parent="1">
          <mxGeometry x="730" y="170" width="60" height="30" as="geometry" />
        </mxCell>
        <mxCell id="f2FuB_gVFWCy95t1vYH7-16" value="" style="rounded=1;whiteSpace=wrap;html=1;" vertex="1" parent="1">
          <mxGeometry x="-50" y="100" width="1100" height="40" as="geometry" />
        </mxCell>
        <mxCell id="f2FuB_gVFWCy95t1vYH7-17" value="&lt;font style=&quot;font-size: 18px;&quot;&gt;&lt;b&gt;param1&lt;/b&gt;&lt;/font&gt;" style="rounded=1;whiteSpace=wrap;html=1;strokeWidth=2;fillWeight=4;hachureGap=8;hachureAngle=45;fillColor=#fff2cc;sketch=1;strokeColor=#d6b656;" vertex="1" parent="1">
          <mxGeometry x="-30" y="100" width="170" height="40" as="geometry" />
        </mxCell>
        <mxCell id="f2FuB_gVFWCy95t1vYH7-18" value="&lt;font style=&quot;font-size: 18px;&quot;&gt;&lt;b&gt;param4&lt;/b&gt;&lt;/font&gt;" style="rounded=1;whiteSpace=wrap;html=1;strokeWidth=2;fillWeight=4;hachureGap=8;hachureAngle=45;fillColor=#fff2cc;sketch=1;strokeColor=#d6b656;" vertex="1" parent="1">
          <mxGeometry x="450" y="100" width="120" height="40" as="geometry" />
        </mxCell>
        <mxCell id="f2FuB_gVFWCy95t1vYH7-19" value="&lt;font style=&quot;font-size: 18px;&quot;&gt;&lt;b&gt;param6&lt;/b&gt;&lt;/font&gt;" style="rounded=1;whiteSpace=wrap;html=1;strokeWidth=2;fillWeight=4;hachureGap=8;hachureAngle=45;fillColor=#fff2cc;sketch=1;strokeColor=#d6b656;" vertex="1" parent="1">
          <mxGeometry x="750" y="100" width="120" height="40" as="geometry" />
        </mxCell>
        <mxCell id="f2FuB_gVFWCy95t1vYH7-20" value="&lt;font style=&quot;font-size: 18px;&quot;&gt;&lt;b&gt;param2&lt;/b&gt;&lt;/font&gt;" style="rounded=1;whiteSpace=wrap;html=1;strokeWidth=2;fillWeight=4;hachureGap=8;hachureAngle=45;fillColor=#fff2cc;sketch=1;strokeColor=#d6b656;" vertex="1" parent="1">
          <mxGeometry x="170" y="100" width="120" height="40" as="geometry" />
        </mxCell>
        <mxCell id="f2FuB_gVFWCy95t1vYH7-21" value="&lt;font style=&quot;font-size: 18px;&quot;&gt;&lt;b&gt;param3&lt;/b&gt;&lt;/font&gt;" style="rounded=1;whiteSpace=wrap;html=1;strokeWidth=2;fillWeight=4;hachureGap=8;hachureAngle=45;fillColor=#fff2cc;sketch=1;strokeColor=#d6b656;" vertex="1" parent="1">
          <mxGeometry x="310" y="100" width="120" height="40" as="geometry" />
        </mxCell>
        <mxCell id="f2FuB_gVFWCy95t1vYH7-22" value="&lt;font style=&quot;font-size: 18px;&quot;&gt;&lt;b&gt;param5&lt;/b&gt;&lt;/font&gt;" style="rounded=1;whiteSpace=wrap;html=1;strokeWidth=2;fillWeight=4;hachureGap=8;hachureAngle=45;fillColor=#fff2cc;sketch=1;strokeColor=#d6b656;" vertex="1" parent="1">
          <mxGeometry x="610" y="100" width="120" height="40" as="geometry" />
        </mxCell>
        <mxCell id="f2FuB_gVFWCy95t1vYH7-23" value="" style="endArrow=classic;html=1;rounded=0;exitX=0.523;exitY=1.075;exitDx=0;exitDy=0;exitPerimeter=0;entryX=0.433;entryY=0;entryDx=0;entryDy=0;entryPerimeter=0;" edge="1" parent="1" source="f2FuB_gVFWCy95t1vYH7-16" target="f2FuB_gVFWCy95t1vYH7-8">
          <mxGeometry width="50" height="50" relative="1" as="geometry">
            <mxPoint x="390" y="430" as="sourcePoint" />
            <mxPoint x="440" y="380" as="targetPoint" />
          </mxGeometry>
        </mxCell>
        <mxCell id="f2FuB_gVFWCy95t1vYH7-24" value="" style="endArrow=classic;html=1;rounded=0;exitX=0.529;exitY=1.025;exitDx=0;exitDy=0;exitPerimeter=0;entryX=0.625;entryY=-0.05;entryDx=0;entryDy=0;entryPerimeter=0;" edge="1" parent="1" source="f2FuB_gVFWCy95t1vYH7-16" target="f2FuB_gVFWCy95t1vYH7-11">
          <mxGeometry width="50" height="50" relative="1" as="geometry">
            <mxPoint x="804" y="300" as="sourcePoint" />
            <mxPoint x="550" y="377" as="targetPoint" />
          </mxGeometry>
        </mxCell>
        <mxCell id="f2FuB_gVFWCy95t1vYH7-25" value="" style="endArrow=classic;html=1;rounded=0;exitX=0.523;exitY=1.075;exitDx=0;exitDy=0;exitPerimeter=0;" edge="1" parent="1">
          <mxGeometry width="50" height="50" relative="1" as="geometry">
            <mxPoint x="2" y="410" as="sourcePoint" />
            <mxPoint x="-242" y="510" as="targetPoint" />
          </mxGeometry>
        </mxCell>
        <mxCell id="f2FuB_gVFWCy95t1vYH7-26" value="" style="endArrow=classic;html=1;rounded=0;entryX=0.814;entryY=-0.025;entryDx=0;entryDy=0;entryPerimeter=0;" edge="1" parent="1" target="f2FuB_gVFWCy95t1vYH7-28">
          <mxGeometry width="50" height="50" relative="1" as="geometry">
            <mxPoint x="40" y="410" as="sourcePoint" />
            <mxPoint x="-154.84000000000015" y="319" as="targetPoint" />
          </mxGeometry>
        </mxCell>
        <mxCell id="f2FuB_gVFWCy95t1vYH7-28" value="" style="rounded=1;whiteSpace=wrap;html=1;" vertex="1" parent="1">
          <mxGeometry x="250" y="520" width="90" height="40" as="geometry" />
        </mxCell>
        <mxCell id="f2FuB_gVFWCy95t1vYH7-29" value="" style="rounded=1;whiteSpace=wrap;html=1;" vertex="1" parent="1">
          <mxGeometry x="-360" y="520" width="540" height="40" as="geometry" />
        </mxCell>
        <mxCell id="f2FuB_gVFWCy95t1vYH7-30" value="&lt;font style=&quot;font-size: 18px;&quot;&gt;&lt;b&gt;param1&lt;/b&gt;&lt;/font&gt;" style="rounded=1;whiteSpace=wrap;html=1;strokeWidth=2;fillWeight=4;hachureGap=8;hachureAngle=45;fillColor=#fff2cc;sketch=1;strokeColor=#d6b656;" vertex="1" parent="1">
          <mxGeometry x="-350" y="520" width="170" height="40" as="geometry" />
        </mxCell>
        <mxCell id="f2FuB_gVFWCy95t1vYH7-31" value="&lt;font style=&quot;font-size: 18px;&quot;&gt;&lt;b&gt;param4&lt;/b&gt;&lt;/font&gt;" style="rounded=1;whiteSpace=wrap;html=1;strokeWidth=2;fillWeight=4;hachureGap=8;hachureAngle=45;fillColor=#fff2cc;sketch=1;strokeColor=#d6b656;" vertex="1" parent="1">
          <mxGeometry x="-170" y="520" width="120" height="40" as="geometry" />
        </mxCell>
        <mxCell id="f2FuB_gVFWCy95t1vYH7-32" value="&lt;font style=&quot;font-size: 18px;&quot;&gt;&lt;b&gt;param6&lt;/b&gt;&lt;/font&gt;" style="rounded=1;whiteSpace=wrap;html=1;strokeWidth=2;fillWeight=4;hachureGap=8;hachureAngle=45;fillColor=#fff2cc;sketch=1;strokeColor=#d6b656;" vertex="1" parent="1">
          <mxGeometry x="-30" y="520" width="120" height="40" as="geometry" />
        </mxCell>
        <mxCell id="f2FuB_gVFWCy95t1vYH7-33" value="&lt;font style=&quot;font-size: 18px;&quot;&gt;&lt;b&gt;decay_param&lt;/b&gt;&lt;/font&gt;" style="text;html=1;whiteSpace=wrap;strokeColor=none;fillColor=none;align=center;verticalAlign=middle;rounded=0;" vertex="1" parent="1">
          <mxGeometry x="-270" y="460" width="60" height="30" as="geometry" />
        </mxCell>
        <mxCell id="f2FuB_gVFWCy95t1vYH7-34" value="&lt;font style=&quot;font-size: 18px;&quot;&gt;&lt;b&gt;other_param&lt;/b&gt;&lt;/font&gt;" style="text;html=1;whiteSpace=wrap;strokeColor=none;fillColor=none;align=center;verticalAlign=middle;rounded=0;" vertex="1" parent="1">
          <mxGeometry x="265" y="460" width="60" height="30" as="geometry" />
        </mxCell>
        <mxCell id="f2FuB_gVFWCy95t1vYH7-35" value="&lt;span style=&quot;font-size: 18px;&quot;&gt;&lt;b&gt;.&lt;/b&gt;&lt;/span&gt;&lt;div&gt;&lt;span style=&quot;font-size: 18px;&quot;&gt;&lt;b&gt;.&lt;/b&gt;&lt;/span&gt;&lt;/div&gt;&lt;div&gt;&lt;span style=&quot;font-size: 18px;&quot;&gt;&lt;b&gt;.&lt;/b&gt;&lt;/span&gt;&lt;/div&gt;&lt;div&gt;&lt;span style=&quot;font-size: 18px;&quot;&gt;&lt;b&gt;.&lt;/b&gt;&lt;/span&gt;&lt;/div&gt;&lt;div&gt;&lt;span style=&quot;font-size: 18px;&quot;&gt;&lt;b&gt;.&lt;/b&gt;&lt;/span&gt;&lt;/div&gt;&lt;div&gt;&lt;span style=&quot;font-size: 18px;&quot;&gt;&lt;b&gt;.&lt;/b&gt;&lt;/span&gt;&lt;/div&gt;&lt;div&gt;&lt;span style=&quot;font-size: 18px;&quot;&gt;&lt;b&gt;&lt;br&gt;&lt;/b&gt;&lt;/span&gt;&lt;/div&gt;" style="text;html=1;whiteSpace=wrap;strokeColor=none;fillColor=none;align=center;verticalAlign=middle;rounded=0;" vertex="1" parent="1">
          <mxGeometry x="740" y="340" width="60" height="50" as="geometry" />
        </mxCell>
        <mxCell id="f2FuB_gVFWCy95t1vYH7-36" value="&lt;font style=&quot;font-size: 18px;&quot;&gt;&lt;b&gt;......&lt;/b&gt;&lt;/font&gt;" style="rounded=1;whiteSpace=wrap;html=1;strokeWidth=2;fillWeight=4;hachureGap=8;hachureAngle=45;fillColor=#fff2cc;sketch=1;strokeColor=#d6b656;" vertex="1" parent="1">
          <mxGeometry x="900" y="100" width="120" height="40" as="geometry" />
        </mxCell>
        <mxCell id="f2FuB_gVFWCy95t1vYH7-37" value="&lt;font style=&quot;font-size: 18px;&quot;&gt;&lt;b&gt;......&lt;/b&gt;&lt;/font&gt;" style="rounded=1;whiteSpace=wrap;html=1;strokeWidth=2;fillWeight=4;hachureGap=8;hachureAngle=45;fillColor=#fff2cc;sketch=1;strokeColor=#d6b656;" vertex="1" parent="1">
          <mxGeometry x="414" y="220" width="60" height="40" as="geometry" />
        </mxCell>
        <mxCell id="f2FuB_gVFWCy95t1vYH7-38" value="&lt;font style=&quot;font-size: 18px;&quot;&gt;&lt;b&gt;......&lt;/b&gt;&lt;/font&gt;" style="rounded=1;whiteSpace=wrap;html=1;strokeWidth=2;fillWeight=4;hachureGap=8;hachureAngle=45;fillColor=#fff2cc;sketch=1;strokeColor=#d6b656;" vertex="1" parent="1">
          <mxGeometry x="970" y="220" width="60" height="40" as="geometry" />
        </mxCell>
        <mxCell id="f2FuB_gVFWCy95t1vYH7-40" value="" style="endArrow=classic;html=1;rounded=0;exitX=0.523;exitY=1.075;exitDx=0;exitDy=0;exitPerimeter=0;entryX=0;entryY=0;entryDx=0;entryDy=0;" edge="1" parent="1" target="f2FuB_gVFWCy95t1vYH7-45">
          <mxGeometry width="50" height="50" relative="1" as="geometry">
            <mxPoint x="180" y="263" as="sourcePoint" />
            <mxPoint x="-66.5" y="340" as="targetPoint" />
          </mxGeometry>
        </mxCell>
        <mxCell id="f2FuB_gVFWCy95t1vYH7-41" value="&lt;font style=&quot;font-size: 18px;&quot;&gt;&lt;b&gt;is_fp32=0,is_dist=0,need_clip=0&lt;/b&gt;&lt;/font&gt;" style="text;html=1;whiteSpace=wrap;strokeColor=none;fillColor=none;align=center;verticalAlign=middle;rounded=0;" vertex="1" parent="1">
          <mxGeometry x="-160" y="300" width="60" height="30" as="geometry" />
        </mxCell>
        <mxCell id="f2FuB_gVFWCy95t1vYH7-42" value="" style="endArrow=classic;html=1;rounded=0;" edge="1" parent="1">
          <mxGeometry width="50" height="50" relative="1" as="geometry">
            <mxPoint x="185" y="260" as="sourcePoint" />
            <mxPoint x="270" y="350" as="targetPoint" />
          </mxGeometry>
        </mxCell>
        <mxCell id="f2FuB_gVFWCy95t1vYH7-43" value="" style="rounded=1;whiteSpace=wrap;html=1;" vertex="1" parent="1">
          <mxGeometry x="-300" y="360" width="520" height="40" as="geometry" />
        </mxCell>
        <mxCell id="f2FuB_gVFWCy95t1vYH7-44" value="&lt;font style=&quot;font-size: 18px;&quot;&gt;&lt;b&gt;param1&lt;/b&gt;&lt;/font&gt;" style="rounded=1;whiteSpace=wrap;html=1;strokeWidth=2;fillWeight=4;hachureGap=8;hachureAngle=45;fillColor=#fff2cc;sketch=1;strokeColor=#d6b656;" vertex="1" parent="1">
          <mxGeometry x="-290" y="360" width="170" height="40" as="geometry" />
        </mxCell>
        <mxCell id="f2FuB_gVFWCy95t1vYH7-45" value="&lt;font style=&quot;font-size: 18px;&quot;&gt;&lt;b&gt;param4&lt;/b&gt;&lt;/font&gt;" style="rounded=1;whiteSpace=wrap;html=1;strokeWidth=2;fillWeight=4;hachureGap=8;hachureAngle=45;fillColor=#fff2cc;sketch=1;strokeColor=#d6b656;" vertex="1" parent="1">
          <mxGeometry x="-100" y="360" width="120" height="40" as="geometry" />
        </mxCell>
        <mxCell id="f2FuB_gVFWCy95t1vYH7-46" value="&lt;font style=&quot;font-size: 18px;&quot;&gt;&lt;b&gt;param6&lt;/b&gt;&lt;/font&gt;" style="rounded=1;whiteSpace=wrap;html=1;strokeWidth=2;fillWeight=4;hachureGap=8;hachureAngle=45;fillColor=#fff2cc;sketch=1;strokeColor=#d6b656;" vertex="1" parent="1">
          <mxGeometry x="30" y="360" width="120" height="40" as="geometry" />
        </mxCell>
        <mxCell id="f2FuB_gVFWCy95t1vYH7-49" value="" style="rounded=1;whiteSpace=wrap;html=1;" vertex="1" parent="1">
          <mxGeometry x="230" y="360" width="70" height="40" as="geometry" />
        </mxCell>
        <mxCell id="f2FuB_gVFWCy95t1vYH7-48" value="&lt;font style=&quot;font-size: 18px;&quot;&gt;&lt;b&gt;......&lt;/b&gt;&lt;/font&gt;" style="rounded=1;whiteSpace=wrap;html=1;strokeWidth=2;fillWeight=4;hachureGap=8;hachureAngle=45;fillColor=#fff2cc;sketch=1;strokeColor=#d6b656;" vertex="1" parent="1">
          <mxGeometry x="240" y="360" width="50" height="40" as="geometry" />
        </mxCell>
        <mxCell id="f2FuB_gVFWCy95t1vYH7-50" value="" style="rounded=1;whiteSpace=wrap;html=1;" vertex="1" parent="1">
          <mxGeometry x="310" y="360" width="70" height="40" as="geometry" />
        </mxCell>
        <mxCell id="f2FuB_gVFWCy95t1vYH7-51" value="&lt;font style=&quot;font-size: 18px;&quot;&gt;&lt;b&gt;......&lt;/b&gt;&lt;/font&gt;" style="rounded=1;whiteSpace=wrap;html=1;strokeWidth=2;fillWeight=4;hachureGap=8;hachureAngle=45;fillColor=#fff2cc;sketch=1;strokeColor=#d6b656;" vertex="1" parent="1">
          <mxGeometry x="320" y="360" width="50" height="40" as="geometry" />
        </mxCell>
        <mxCell id="f2FuB_gVFWCy95t1vYH7-52" value="" style="rounded=1;whiteSpace=wrap;html=1;" vertex="1" parent="1">
          <mxGeometry x="390" y="360" width="70" height="40" as="geometry" />
        </mxCell>
        <mxCell id="f2FuB_gVFWCy95t1vYH7-53" value="&lt;font style=&quot;font-size: 18px;&quot;&gt;&lt;b&gt;......&lt;/b&gt;&lt;/font&gt;" style="rounded=1;whiteSpace=wrap;html=1;strokeWidth=2;fillWeight=4;hachureGap=8;hachureAngle=45;fillColor=#fff2cc;sketch=1;strokeColor=#d6b656;" vertex="1" parent="1">
          <mxGeometry x="400" y="360" width="50" height="40" as="geometry" />
        </mxCell>
        <mxCell id="f2FuB_gVFWCy95t1vYH7-54" value="" style="rounded=1;whiteSpace=wrap;html=1;" vertex="1" parent="1">
          <mxGeometry x="475" y="360" width="70" height="40" as="geometry" />
        </mxCell>
        <mxCell id="f2FuB_gVFWCy95t1vYH7-55" value="&lt;font style=&quot;font-size: 18px;&quot;&gt;&lt;b&gt;......&lt;/b&gt;&lt;/font&gt;" style="rounded=1;whiteSpace=wrap;html=1;strokeWidth=2;fillWeight=4;hachureGap=8;hachureAngle=45;fillColor=#fff2cc;sketch=1;strokeColor=#d6b656;" vertex="1" parent="1">
          <mxGeometry x="485" y="360" width="50" height="40" as="geometry" />
        </mxCell>
        <mxCell id="f2FuB_gVFWCy95t1vYH7-56" value="" style="rounded=1;whiteSpace=wrap;html=1;" vertex="1" parent="1">
          <mxGeometry x="560" y="360" width="70" height="40" as="geometry" />
        </mxCell>
        <mxCell id="f2FuB_gVFWCy95t1vYH7-57" value="&lt;font style=&quot;font-size: 18px;&quot;&gt;&lt;b&gt;......&lt;/b&gt;&lt;/font&gt;" style="rounded=1;whiteSpace=wrap;html=1;strokeWidth=2;fillWeight=4;hachureGap=8;hachureAngle=45;fillColor=#fff2cc;sketch=1;strokeColor=#d6b656;" vertex="1" parent="1">
          <mxGeometry x="570" y="360" width="50" height="40" as="geometry" />
        </mxCell>
        <mxCell id="f2FuB_gVFWCy95t1vYH7-58" value="" style="endArrow=classic;html=1;rounded=0;exitX=0.5;exitY=1;exitDx=0;exitDy=0;" edge="1" parent="1" source="f2FuB_gVFWCy95t1vYH7-8">
          <mxGeometry width="50" height="50" relative="1" as="geometry">
            <mxPoint x="270" y="270" as="sourcePoint" />
            <mxPoint x="340" y="350" as="targetPoint" />
          </mxGeometry>
        </mxCell>
        <mxCell id="f2FuB_gVFWCy95t1vYH7-59" value="" style="endArrow=classic;html=1;rounded=0;exitX=0.667;exitY=1.05;exitDx=0;exitDy=0;exitPerimeter=0;" edge="1" parent="1" source="f2FuB_gVFWCy95t1vYH7-8">
          <mxGeometry width="50" height="50" relative="1" as="geometry">
            <mxPoint x="280" y="270" as="sourcePoint" />
            <mxPoint x="430" y="360" as="targetPoint" />
          </mxGeometry>
        </mxCell>
        <mxCell id="f2FuB_gVFWCy95t1vYH7-60" value="" style="endArrow=classic;html=1;rounded=0;exitX=0.842;exitY=1.075;exitDx=0;exitDy=0;exitPerimeter=0;" edge="1" parent="1" source="f2FuB_gVFWCy95t1vYH7-8">
          <mxGeometry width="50" height="50" relative="1" as="geometry">
            <mxPoint x="230" y="270" as="sourcePoint" />
            <mxPoint x="510" y="358" as="targetPoint" />
          </mxGeometry>
        </mxCell>
        <mxCell id="f2FuB_gVFWCy95t1vYH7-61" value="" style="endArrow=classic;html=1;rounded=0;entryX=0.5;entryY=0;entryDx=0;entryDy=0;" edge="1" parent="1" target="f2FuB_gVFWCy95t1vYH7-57">
          <mxGeometry width="50" height="50" relative="1" as="geometry">
            <mxPoint x="240" y="260" as="sourcePoint" />
            <mxPoint x="520" y="348" as="targetPoint" />
          </mxGeometry>
        </mxCell>
        <mxCell id="f2FuB_gVFWCy95t1vYH7-62" value="&lt;font style=&quot;font-size: 18px;&quot;&gt;&lt;b&gt;......&lt;/b&gt;&lt;/font&gt;" style="text;html=1;whiteSpace=wrap;strokeColor=none;fillColor=none;align=center;verticalAlign=middle;rounded=0;" vertex="1" parent="1">
          <mxGeometry x="500" y="300" width="60" height="30" as="geometry" />
        </mxCell>
        <mxCell id="f2FuB_gVFWCy95t1vYH7-63" value="&lt;font style=&quot;font-size: 18px;&quot;&gt;&lt;b&gt;......&lt;/b&gt;&lt;/font&gt;" style="rounded=1;whiteSpace=wrap;html=1;strokeWidth=2;fillWeight=4;hachureGap=8;hachureAngle=45;fillColor=#fff2cc;sketch=1;strokeColor=#d6b656;" vertex="1" parent="1">
          <mxGeometry x="165" y="360" width="50" height="40" as="geometry" />
        </mxCell>
        <mxCell id="f2FuB_gVFWCy95t1vYH7-64" value="&lt;font style=&quot;font-size: 18px;&quot;&gt;&lt;b&gt;......&lt;/b&gt;&lt;/font&gt;" style="rounded=1;whiteSpace=wrap;html=1;strokeWidth=2;fillWeight=4;hachureGap=8;hachureAngle=45;fillColor=#fff2cc;sketch=1;strokeColor=#d6b656;" vertex="1" parent="1">
          <mxGeometry x="270" y="520" width="50" height="40" as="geometry" />
        </mxCell>
        <mxCell id="f2FuB_gVFWCy95t1vYH7-67" value="&lt;font style=&quot;font-size: 18px;&quot;&gt;&lt;b&gt;......&lt;/b&gt;&lt;/font&gt;" style="rounded=1;whiteSpace=wrap;html=1;strokeWidth=2;fillWeight=4;hachureGap=8;hachureAngle=45;fillColor=#fff2cc;sketch=1;strokeColor=#d6b656;" vertex="1" parent="1">
          <mxGeometry x="110" y="520" width="50" height="40" as="geometry" />
        </mxCell>
        <mxCell id="f2FuB_gVFWCy95t1vYH7-68" value="" style="endArrow=classic;html=1;rounded=0;exitX=0.523;exitY=1.075;exitDx=0;exitDy=0;exitPerimeter=0;entryX=0.5;entryY=0;entryDx=0;entryDy=0;" edge="1" parent="1">
          <mxGeometry width="50" height="50" relative="1" as="geometry">
            <mxPoint x="-100" y="564" as="sourcePoint" />
            <mxPoint x="-265" y="610" as="targetPoint" />
          </mxGeometry>
        </mxCell>
        <mxCell id="f2FuB_gVFWCy95t1vYH7-70" value="" style="rounded=1;whiteSpace=wrap;html=1;" vertex="1" parent="1">
          <mxGeometry x="-460" y="620" width="460" height="40" as="geometry" />
        </mxCell>
        <mxCell id="f2FuB_gVFWCy95t1vYH7-71" value="&lt;font style=&quot;font-size: 18px;&quot;&gt;&lt;b&gt;param1&lt;/b&gt;&lt;/font&gt;" style="rounded=1;whiteSpace=wrap;html=1;strokeWidth=2;fillWeight=4;hachureGap=8;hachureAngle=45;fillColor=#fff2cc;sketch=1;strokeColor=#d6b656;" vertex="1" parent="1">
          <mxGeometry x="-450" y="620" width="170" height="40" as="geometry" />
        </mxCell>
        <mxCell id="f2FuB_gVFWCy95t1vYH7-72" value="&lt;font style=&quot;font-size: 18px;&quot;&gt;&lt;b&gt;param4&lt;/b&gt;&lt;/font&gt;" style="rounded=1;whiteSpace=wrap;html=1;strokeWidth=2;fillWeight=4;hachureGap=8;hachureAngle=45;fillColor=#fff2cc;sketch=1;strokeColor=#d6b656;" vertex="1" parent="1">
          <mxGeometry x="-270" y="620" width="120" height="40" as="geometry" />
        </mxCell>
        <mxCell id="f2FuB_gVFWCy95t1vYH7-73" value="&lt;font style=&quot;font-size: 18px;&quot;&gt;&lt;b&gt;param6&lt;/b&gt;&lt;/font&gt;" style="rounded=1;whiteSpace=wrap;html=1;strokeWidth=2;fillWeight=4;hachureGap=8;hachureAngle=45;fillColor=#fff2cc;sketch=1;strokeColor=#d6b656;" vertex="1" parent="1">
          <mxGeometry x="-130" y="620" width="120" height="40" as="geometry" />
        </mxCell>
        <mxCell id="f2FuB_gVFWCy95t1vYH7-75" value="&lt;font style=&quot;font-size: 18px;&quot;&gt;&lt;b&gt;group_0&lt;/b&gt;&lt;/font&gt;" style="text;html=1;whiteSpace=wrap;strokeColor=none;fillColor=none;align=center;verticalAlign=middle;rounded=0;" vertex="1" parent="1">
          <mxGeometry x="-340" y="580" width="60" height="30" as="geometry" />
        </mxCell>
        <mxCell id="f2FuB_gVFWCy95t1vYH7-77" value="" style="endArrow=classic;html=1;rounded=0;" edge="1" parent="1">
          <mxGeometry width="50" height="50" relative="1" as="geometry">
            <mxPoint x="-80" y="560" as="sourcePoint" />
            <mxPoint x="70" y="620" as="targetPoint" />
          </mxGeometry>
        </mxCell>
        <mxCell id="f2FuB_gVFWCy95t1vYH7-78" value="" style="rounded=1;whiteSpace=wrap;html=1;" vertex="1" parent="1">
          <mxGeometry x="20" y="620" width="90" height="40" as="geometry" />
        </mxCell>
        <mxCell id="f2FuB_gVFWCy95t1vYH7-79" value="&lt;span style=&quot;font-size: 18px;&quot;&gt;&lt;b&gt;......&lt;/b&gt;&lt;/span&gt;" style="rounded=1;whiteSpace=wrap;html=1;strokeWidth=2;fillWeight=4;hachureGap=8;hachureAngle=45;fillColor=#fff2cc;sketch=1;strokeColor=#d6b656;" vertex="1" parent="1">
          <mxGeometry x="40" y="620" width="50" height="40" as="geometry" />
        </mxCell>
        <mxCell id="f2FuB_gVFWCy95t1vYH7-80" value="" style="endArrow=classic;html=1;rounded=0;" edge="1" parent="1">
          <mxGeometry width="50" height="50" relative="1" as="geometry">
            <mxPoint x="40" y="560" as="sourcePoint" />
            <mxPoint x="190" y="620" as="targetPoint" />
          </mxGeometry>
        </mxCell>
        <mxCell id="f2FuB_gVFWCy95t1vYH7-81" value="" style="rounded=1;whiteSpace=wrap;html=1;" vertex="1" parent="1">
          <mxGeometry x="140" y="620" width="90" height="40" as="geometry" />
        </mxCell>
        <mxCell id="f2FuB_gVFWCy95t1vYH7-82" value="&lt;span style=&quot;font-size: 18px;&quot;&gt;&lt;b&gt;......&lt;/b&gt;&lt;/span&gt;" style="rounded=1;whiteSpace=wrap;html=1;strokeWidth=2;fillWeight=4;hachureGap=8;hachureAngle=45;fillColor=#fff2cc;sketch=1;strokeColor=#d6b656;" vertex="1" parent="1">
          <mxGeometry x="160" y="620" width="50" height="40" as="geometry" />
        </mxCell>
        <mxCell id="f2FuB_gVFWCy95t1vYH7-83" value="&lt;font style=&quot;font-size: 18px;&quot;&gt;&lt;b&gt;group_1&lt;/b&gt;&lt;/font&gt;" style="text;html=1;whiteSpace=wrap;strokeColor=none;fillColor=none;align=center;verticalAlign=middle;rounded=0;" vertex="1" parent="1">
          <mxGeometry x="50" y="584" width="60" height="30" as="geometry" />
        </mxCell>
        <mxCell id="f2FuB_gVFWCy95t1vYH7-84" value="&lt;font style=&quot;font-size: 18px;&quot;&gt;&lt;b&gt;group_2&lt;/b&gt;&lt;/font&gt;" style="text;html=1;whiteSpace=wrap;strokeColor=none;fillColor=none;align=center;verticalAlign=middle;rounded=0;" vertex="1" parent="1">
          <mxGeometry x="170" y="584" width="60" height="30" as="geometry" />
        </mxCell>
      </root>
    </mxGraphModel>
  </diagram>
</mxfile>
